<?xml version="1.0" standalone="no"?>
<!DOCTYPE svg PUBLIC "-//W3C//DTD SVG 20010904//EN"
 "http://www.w3.org/TR/2001/REC-SVG-20010904/DTD/svg10.dtd">
<svg version="1.0" xmlns="http://www.w3.org/2000/svg"
 width="3781.000000pt" height="4016.000000pt" viewBox="0 0 3781.000000 4016.000000"
 preserveAspectRatio="xMidYMid meet">

<g transform="translate(0.000000,4016.000000) scale(0.100000,-0.100000)"
fill="#000000" stroke="none">
<path d="M18145 36464 c-46 -24 -52 -30 -309 -329 -256 -298 -484 -561 -551
-635 -330 -361 -552 -596 -1205 -1275 -122 -127 -282 -294 -445 -465 -75 -79
-352 -373 -470 -500 -84 -91 -494 -539 -585 -640 -47 -52 -110 -121 -141 -154
-30 -34 -208 -227 -394 -431 -186 -203 -373 -406 -414 -449 -42 -44 -83 -87
-91 -96 -8 -9 -53 -57 -100 -106 -47 -49 -125 -132 -174 -184 -149 -158 -246
-260 -346 -365 -52 -55 -172 -181 -265 -280 -94 -99 -222 -234 -286 -300 -63
-66 -257 -268 -429 -450 -173 -181 -393 -413 -490 -514 -96 -101 -180 -189
-185 -195 -15 -16 -227 -238 -320 -336 -45 -47 -164 -173 -265 -280 -101 -107
-229 -242 -285 -300 -55 -58 -152 -159 -215 -225 -243 -255 -636 -661 -895
-925 -757 -771 -831 -853 -1111 -1235 -343 -468 -454 -593 -1214 -1360 -482
-487 -497 -503 -724 -775 -95 -114 -262 -298 -378 -415 -115 -115 -227 -235
-249 -265 -56 -75 -106 -177 -124 -252 -18 -76 -19 -211 -2 -290 l12 -58 87
-52 c90 -54 201 -158 823 -767 110 -108 391 -383 625 -611 234 -227 646 -634
916 -904 635 -635 674 -673 1189 -1140 412 -375 808 -768 1005 -996 178 -208
271 -296 544 -515 438 -353 1063 -871 1506 -1250 494 -423 945 -809 1025 -879
49 -43 106 -92 125 -109 19 -17 53 -47 75 -66 23 -20 72 -63 110 -96 207 -179
828 -746 1075 -980 41 -39 104 -98 140 -131 221 -204 436 -409 682 -653 174
-171 231 -234 242 -265 10 -27 23 -155 37 -366 20 -281 23 -434 27 -1125 2
-440 1 -1188 -3 -1662 l-7 -863 -67 -38 c-97 -57 -638 -375 -1186 -697 -876
-516 -1025 -595 -1670 -880 -291 -128 -378 -171 -414 -201 -42 -37 -86 -112
-96 -167 -7 -34 -4 -40 31 -74 73 -68 107 -77 278 -69 217 10 450 23 876 51
206 13 458 29 560 35 235 14 325 24 535 60 94 16 220 35 280 42 147 17 494 16
623 -1 l102 -13 0 -355 0 -355 -32 -32 c-33 -32 -87 -57 -503 -229 -418 -174
-729 -321 -975 -462 -166 -94 -262 -141 -350 -170 -152 -49 -206 -115 -171
-208 8 -21 24 -27 163 -56 398 -84 564 -139 807 -268 164 -88 228 -140 272
-224 46 -86 87 -119 148 -119 39 0 71 12 175 65 163 82 238 100 390 92 160 -7
295 -55 445 -157 80 -54 128 -72 191 -72 62 0 100 14 195 72 178 109 347 171
530 195 128 16 535 35 775 35 164 0 270 13 305 36 36 23 96 117 97 150 1 38
-80 235 -144 351 -106 192 -214 302 -505 509 -135 97 -168 116 -252 144 -139
47 -464 182 -627 260 -143 68 -197 109 -230 172 -42 81 -41 496 2 580 24 47
73 96 108 107 129 42 558 40 1182 -5 127 -9 247 -14 266 -10 19 3 46 18 59 32
21 23 24 35 24 104 -1 69 -5 86 -38 153 -40 81 -100 142 -357 364 -231 199
-498 429 -610 527 -244 212 -459 454 -500 563 -30 81 -35 452 -20 1739 9 845
10 1155 1 1230 -11 100 -41 520 -41 580 l0 33 43 -47 c24 -26 79 -90 124 -142
112 -131 204 -218 543 -516 125 -110 512 -443 581 -499 20 -16 193 -163 385
-326 633 -536 1217 -1021 1243 -1031 14 -5 49 -8 77 -6 46 4 58 10 105 55 30
27 115 105 189 173 439 401 663 623 945 935 191 212 253 282 505 570 139 160
264 304 279 320 14 17 102 118 196 225 377 434 481 547 761 830 285 288 374
383 598 640 60 69 135 154 166 190 313 358 416 477 425 486 5 6 42 46 80 90
104 117 407 446 505 549 116 122 506 528 726 756 98 103 215 221 260 262 79
75 82 76 112 65 24 -9 30 -17 27 -33 -2 -11 -9 -83 -15 -161 -10 -136 -25
-212 -54 -264 -20 -36 -177 -202 -271 -287 -149 -135 -289 -227 -449 -293 -50
-21 -101 -50 -113 -64 -32 -38 -65 -134 -67 -197 -1 -49 6 -69 58 -173 101
-203 130 -204 363 -18 190 152 433 333 433 323 0 -6 16 -113 35 -238 50 -331
55 -430 55 -1135 0 -427 4 -654 11 -689 16 -76 52 -111 120 -117 140 -11 367
133 435 276 35 74 43 167 32 392 -17 336 17 2288 42 2480 14 104 43 159 100
188 43 22 54 23 215 20 109 -2 178 -8 192 -16 14 -8 24 -27 29 -54 4 -24 8
-340 8 -703 1 -612 2 -662 19 -692 28 -53 57 -66 129 -59 35 4 132 9 216 12
l152 6 0 624 c0 343 4 624 8 624 10 0 55 -62 106 -147 42 -71 78 -103 113
-103 28 0 94 32 112 54 8 9 20 16 27 16 11 0 441 -186 481 -209 9 -5 -3 -30
-41 -86 -62 -91 -79 -112 -311 -376 -233 -265 -375 -432 -408 -482 -15 -22
-38 -73 -50 -111 -22 -70 -22 -78 -20 -624 2 -605 3 -621 61 -674 37 -34 59
-45 113 -53 72 -11 145 10 211 58 156 114 264 203 400 332 344 322 440 391
652 466 43 15 84 36 92 46 30 40 36 116 32 418 -5 332 -11 374 -68 435 l-31
33 -82 -6 c-98 -6 -159 -30 -221 -87 -48 -44 -60 -73 -71 -158 -15 -132 -72
-219 -202 -314 -49 -34 -132 -98 -187 -142 -109 -87 -106 -87 -132 3 -21 69
-14 132 22 203 15 29 118 168 229 308 110 140 347 442 525 670 177 228 329
423 337 432 28 32 -105 81 -442 164 -522 129 -501 123 -548 165 -41 37 -42 38
-22 53 56 43 100 55 279 71 284 25 635 38 834 30 l182 -7 0 -34 c0 -18 -13
-67 -30 -108 -155 -391 -105 -768 153 -1156 62 -93 164 -225 235 -304 85 -95
139 -171 163 -234 22 -56 22 -64 20 -462 -2 -279 1 -432 9 -490 7 -47 14 -86
15 -88 2 -2 43 15 91 38 49 23 129 58 179 78 154 62 216 152 201 296 -3 33 -9
131 -12 216 -5 128 -2 179 15 293 24 161 27 309 6 386 -33 127 -76 183 -290
381 -116 106 -194 237 -236 395 -35 133 -29 372 17 635 36 210 97 279 244 280
36 0 119 9 185 20 66 11 136 17 155 14 112 -19 164 -127 162 -334 0 -119 -21
-218 -79 -379 -123 -343 -154 -439 -160 -491 -6 -66 7 -174 48 -396 48 -262
54 -443 18 -565 -18 -58 8 -92 101 -134 92 -43 127 -44 182 -6 24 15 69 44
102 62 119 69 137 130 87 299 -84 287 -86 574 -6 891 45 176 159 478 169 449
10 -26 194 -646 206 -692 21 -83 32 -97 133 -176 134 -104 310 -228 369 -258
142 -73 219 -31 332 180 154 290 283 444 551 659 83 66 151 121 152 122 9 5
-24 270 -58 475 -38 226 -41 256 -37 385 5 148 7 155 88 375 23 63 33 109 37
175 10 158 -30 267 -187 511 -97 150 -182 321 -205 414 -45 174 -3 360 114
507 l41 52 -31 22 c-30 21 -38 22 -173 16 -169 -7 -263 -29 -391 -92 -49 -24
-117 -68 -151 -97 -128 -112 -314 -388 -649 -968 -184 -317 -218 -365 -287
-401 -77 -39 -94 -30 -271 138 -137 130 -209 173 -292 173 -86 0 -431 -97
-544 -153 -74 -36 -158 -110 -203 -176 -46 -69 -51 -71 -152 -71 -103 0 -586
26 -591 32 -2 2 -11 62 -20 133 -32 268 -62 305 -253 322 -40 3 -74 9 -76 12
-1 3 7 121 19 261 12 140 21 256 21 257 -1 1 -250 -172 -554 -384 -305 -212
-557 -381 -561 -377 -12 13 -62 438 -64 541 -3 140 2 147 345 498 161 165 344
363 406 440 85 104 279 305 767 790 359 358 765 767 902 910 258 270 457 478
483 506 8 9 60 63 115 120 55 57 154 160 220 229 66 69 169 177 230 240 60 64
160 167 220 231 386 404 590 615 817 844 142 143 283 293 313 333 62 82 129
212 151 292 21 78 29 271 15 354 -22 127 -46 173 -136 261 -418 411 -841 829
-1325 1310 -821 815 -1199 1183 -1465 1424 -28 25 -75 69 -105 96 -31 28 -89
79 -130 115 -40 36 -117 103 -169 150 -53 47 -130 114 -171 149 -96 83 -383
334 -390 341 -3 4 -108 96 -235 205 -344 298 -421 378 -955 1000 -118 137
-267 306 -330 375 -124 135 -867 881 -1310 1315 -765 748 -792 774 -1165 1115
-33 30 -62 58 -65 61 -3 3 -131 117 -285 254 -975 865 -1039 924 -1570 1446
-640 630 -1175 1107 -1944 1737 -464 380 -656 564 -1372 1317 -336 353 -416
430 -470 455 -54 24 -142 26 -184 4z m164 -222 c18 -10 166 -149 329 -309
1588 -1558 1617 -1585 2055 -1906 442 -324 549 -422 1211 -1114 l69 -73 -726
-722 -725 -723 -149 -200 c-171 -231 -272 -339 -578 -619 -201 -184 -598 -542
-636 -573 -25 -20 -143 67 -489 362 -564 482 -704 608 -1055 955 -390 385
-549 525 -1095 963 -206 166 -422 342 -480 391 -124 106 -407 382 -492 480
l-60 69 4 71 c3 39 12 85 21 102 18 35 262 296 1077 1154 937 986 1067 1125
1424 1519 171 189 216 215 295 173z m4151 -6097 c16 -8 41 -30 55 -49 28 -36
75 -145 75 -173 0 -10 4 -23 8 -29 4 -7 75 -19 163 -28 265 -27 352 -75 409
-223 43 -113 34 -306 -19 -420 -51 -109 -135 -174 -271 -209 -100 -27 -183
-23 -255 10 -142 64 -235 214 -280 451 -10 50 -21 93 -24 98 -4 4 -45 12 -91
18 -152 19 -202 57 -222 169 -35 202 163 422 365 405 32 -3 71 -12 87 -20z
m-7040 -206 c87 -14 143 -42 173 -88 21 -31 219 -611 297 -868 12 -40 25 -73
28 -73 4 0 81 88 171 195 91 107 168 195 171 195 21 0 92 -66 109 -100 18 -38
19 -44 5 -83 -16 -45 -31 -66 -261 -354 -140 -176 -188 -223 -225 -223 -7 0
-39 62 -71 137 -60 140 -137 380 -247 763 -92 322 -129 370 -248 315 -88 -41
-108 -104 -65 -207 30 -71 -19 -150 -101 -162 -74 -11 -125 1 -138 32 -23 60
39 311 103 417 60 99 145 129 299 104z m4098 -386 c533 -469 950 -868 1642
-1573 860 -877 935 -950 1205 -1174 138 -114 250 -210 250 -214 0 -4 -47 -49
-105 -101 -169 -151 -603 -591 -910 -921 -336 -361 -793 -821 -975 -979 -246
-215 -592 -479 -605 -464 -15 18 -73 222 -77 274 -17 178 74 576 197 864 51
121 178 374 252 505 29 52 66 127 82 165 16 39 59 131 96 205 176 357 230 487
279 670 96 362 89 692 -21 1025 -100 303 -351 680 -658 985 -200 199 -349 307
-551 396 -202 89 -381 127 -616 128 l-163 1 -5 27 c-4 15 -4 32 0 38 10 16
428 350 438 350 5 0 115 -93 245 -207z m6154 -140 c241 -258 340 -368 779
-858 512 -573 714 -791 1014 -1090 371 -371 671 -637 995 -880 63 -48 117 -88
119 -90 9 -9 -25 -118 -60 -194 -68 -147 -143 -234 -364 -421 -153 -130 -189
-164 -891 -840 -601 -579 -1515 -1445 -1528 -1447 -6 -1 -74 69 -151 156 -466
526 -921 1015 -1220 1310 -175 174 -308 318 -458 495 -334 396 -514 572 -737
721 -58 38 -144 109 -192 156 -147 145 -144 186 35 454 262 392 485 650 1122
1295 410 415 617 633 1095 1153 140 152 255 277 256 277 1 0 85 -89 186 -197z
m-13582 121 c77 -36 159 -100 445 -349 750 -655 1410 -1213 1715 -1450 627
-487 870 -701 1103 -972 57 -66 116 -122 165 -156 87 -61 158 -134 168 -171
10 -40 -11 -85 -88 -188 -196 -260 -511 -582 -1028 -1048 -594 -536 -829 -782
-1510 -1575 -151 -176 -337 -391 -415 -479 -77 -87 -151 -171 -165 -187 l-25
-30 -360 317 c-832 732 -976 851 -1250 1032 -317 210 -386 264 -510 397 -196
210 -986 928 -1392 1263 -144 120 -261 220 -260 224 2 6 663 731 1007 1102
241 261 433 464 950 1006 234 245 540 567 679 715 361 383 508 527 561 553 63
31 139 29 210 -4z m7232 -373 c186 -42 305 -108 463 -253 50 -46 142 -123 205
-172 254 -198 340 -282 453 -438 241 -336 366 -918 288 -1343 -55 -305 -136
-504 -474 -1165 -410 -803 -431 -856 -462 -1175 -21 -223 -33 -261 -108 -343
-71 -77 -136 -118 -249 -156 -239 -82 -489 -86 -708 -11 -164 56 -227 136
-250 320 -42 340 -129 585 -270 770 -57 74 -130 210 -130 240 0 8 39 49 86 92
129 117 137 141 94 277 -15 50 -33 114 -38 141 -16 78 -25 314 -14 362 12 53
-9 166 -45 237 -32 62 -96 124 -169 163 -80 42 -281 105 -472 147 -226 51
-225 51 -332 26 -52 -11 -105 -23 -117 -26 -15 -3 -25 2 -31 13 -13 26 -56
242 -50 249 3 3 38 8 77 13 58 6 76 12 99 34 42 40 52 110 34 225 -8 50 -12
97 -9 106 3 8 19 18 34 22 82 18 104 26 101 36 -2 6 -55 35 -118 64 -82 38
-117 60 -123 76 -5 13 -6 57 -3 98 12 170 92 389 201 555 89 136 279 321 434
424 179 119 464 251 511 236 45 -14 28 -31 -255 -255 -126 -101 -233 -186
-238 -189 -4 -4 -1 -15 6 -25 23 -32 87 -5 169 70 130 119 257 191 418 238
241 68 500 55 905 -46 329 -82 511 -180 694 -374 89 -95 116 -136 295 -441
148 -253 200 -372 227 -523 16 -93 14 -154 -12 -283 -16 -83 -19 -122 -12
-142 13 -41 26 -41 56 2 22 33 28 58 40 178 18 168 9 290 -29 395 -54 150
-260 552 -353 689 -167 245 -446 445 -770 551 -206 68 -431 106 -794 134 -99
8 -184 19 -192 26 -18 15 -30 69 -18 81 18 18 257 79 343 89 144 15 510 4 612
-19z m-2407 -2263 c67 -384 71 -414 56 -431 -27 -28 -565 -437 -573 -434 -10
3 -438 369 -438 374 0 3 132 136 294 296 161 161 358 365 436 455 79 89 145
160 148 157 2 -2 37 -190 77 -417z m698 -264 c147 -34 370 -148 411 -212 37
-56 44 -99 55 -319 12 -233 4 -329 -35 -411 -81 -167 -478 -339 -919 -397
-144 -19 -498 -31 -475 -16 9 5 92 30 185 56 319 87 584 184 745 273 119 65
282 183 337 243 21 23 21 25 5 56 l-17 32 -73 -35 c-41 -18 -75 -34 -76 -34
-2 0 -67 -36 -145 -81 -365 -207 -710 -313 -1136 -350 -155 -13 -197 -9 -391
37 -115 27 -133 39 -119 77 6 14 196 124 410 237 201 106 314 200 650 541 116
118 235 230 265 250 105 70 188 83 323 53z m386 -1361 c32 -33 156 -247 210
-365 79 -170 115 -331 109 -485 l-3 -82 -497 360 -497 360 13 37 c12 36 16 38
107 65 236 71 477 136 502 136 18 1 38 -9 56 -26z m1701 -1401 l0 -238 -72
-12 c-40 -6 -109 -22 -153 -35 -379 -113 -424 -123 -550 -114 -148 11 -288 72
-391 172 -69 66 -83 110 -65 208 7 40 16 98 21 131 5 32 11 60 14 63 2 3 30
-4 60 -16 72 -27 232 -66 323 -80 233 -35 508 10 720 118 43 22 81 40 86 41 4
0 7 -107 7 -238z m402 63 c141 -122 251 -201 358 -255 59 -31 75 -34 185 -40
158 -8 192 -26 234 -120 20 -47 48 -196 38 -206 -13 -14 -313 -66 -407 -71
-180 -9 -342 47 -450 156 -95 95 -130 193 -130 366 0 92 24 285 35 285 2 0 64
-52 137 -115z m-1813 -102 c30 -17 31 -20 26 -73 -3 -30 -10 -149 -15 -265 -6
-115 -13 -240 -16 -277 -6 -65 -7 -68 -33 -68 -38 0 -121 42 -160 81 -30 30
-79 121 -138 259 -11 25 -37 67 -58 95 -21 27 -34 51 -29 52 5 2 92 50 194
107 102 57 188 104 192 105 3 1 20 -7 37 -16z m4404 -405 c113 -167 254 -370
313 -453 59 -82 116 -169 126 -192 27 -61 12 -110 -45 -154 -23 -18 -59 -48
-79 -68 -21 -19 -40 -32 -44 -29 -3 4 -10 39 -15 78 -22 176 -72 270 -277 524
-108 134 -189 250 -211 304 l-13 31 -65 -97 c-180 -265 -235 -342 -244 -342
-17 0 -91 41 -140 76 -35 25 -48 43 -53 67 -11 61 14 95 176 243 260 237 348
314 357 314 5 0 102 -136 214 -302z m6287 95 c102 -91 241 -219 311 -283 137
-128 175 -149 232 -131 19 7 40 9 48 6 26 -10 81 -102 75 -123 -4 -11 -53 -64
-109 -119 -104 -101 -191 -168 -205 -159 -5 3 -3 32 4 65 10 51 9 68 -5 123
-10 35 -22 72 -29 84 -24 46 -87 110 -189 195 -60 50 -115 98 -124 109 -15 18
-19 17 -108 -37 -51 -30 -94 -53 -96 -51 -19 19 -15 488 4 488 4 0 90 -75 191
-167z m-11292 13 c63 -35 110 -94 186 -236 66 -122 98 -158 181 -205 109 -61
155 -129 155 -227 0 -45 -21 -153 -32 -163 -2 -2 -78 5 -168 16 -91 11 -230
22 -310 25 -80 3 -168 12 -196 20 -60 16 -107 62 -123 121 -7 23 -11 167 -11
361 l0 324 133 -4 c124 -3 135 -5 185 -32z m2115 -18 c18 -14 23 -53 58 -443
26 -299 17 -389 -49 -466 -47 -55 -115 -97 -237 -147 -55 -22 -125 -52 -155
-65 -146 -65 -588 -185 -715 -194 -77 -5 -182 20 -322 78 -96 40 -129 72 -138
131 -6 40 0 65 40 180 62 179 72 214 95 348 20 118 87 479 95 515 12 49 17 49
127 -4 123 -60 217 -83 348 -83 124 -1 201 12 460 79 203 52 326 80 361 82 8
1 23 -5 32 -11z m-10835 -134 c12 -8 22 -21 22 -27 0 -7 -24 -31 -54 -55 -94
-73 -134 -192 -106 -314 20 -85 68 -203 93 -226 12 -11 34 -24 49 -27 24 -6
28 -4 33 22 10 48 65 150 106 197 59 67 136 101 229 101 80 0 158 -23 196 -56
11 -11 25 -19 31 -19 5 0 33 -24 60 -53 128 -135 132 -333 9 -504 -118 -165
-343 -172 -578 -18 -165 110 -259 256 -323 505 -34 130 -35 138 -24 210 18
113 67 197 145 249 53 35 79 38 112 15z m18422 -1472 c914 -782 1660 -1427
1658 -1431 -2 -5 -115 -113 -253 -241 -378 -351 -653 -628 -1012 -1018 -179
-195 -357 -379 -396 -410 -162 -131 -292 -247 -461 -412 -292 -286 -459 -485
-651 -775 -62 -93 -135 -194 -162 -224 l-49 -55 -264 207 c-146 114 -341 262
-435 329 -224 161 -262 191 -589 473 -344 296 -520 444 -942 792 -626 516
-681 567 -922 841 l-143 162 133 144 c1759 1906 2814 3044 2820 3043 4 -1 755
-642 1668 -1425z m-11254 1297 c231 -87 409 -421 365 -686 -13 -83 -36 -129
-92 -185 -48 -48 -119 -78 -183 -78 -38 1 -135 39 -187 76 -64 44 -194 177
-258 264 -77 103 -117 186 -137 279 -14 70 -14 78 5 140 25 82 63 129 133 164
115 58 243 67 354 26z m4092 -379 c-4 -77 -10 -117 -22 -135 -9 -13 -54 -58
-101 -98 -88 -78 -460 -366 -479 -372 -14 -5 -59 52 -52 64 4 5 75 58 159 117
203 143 328 267 385 382 23 46 44 98 48 117 5 31 10 35 37 35 l30 0 -5 -110z
m311 33 c179 -87 255 -245 232 -486 -6 -56 -13 -189 -17 -294 -3 -106 -8 -193
-9 -193 -1 0 -80 36 -175 80 -204 95 -312 134 -515 185 -82 21 -152 40 -154
42 -12 9 147 155 266 244 73 55 144 115 159 134 36 48 52 110 60 232 l7 105
36 -7 c20 -3 69 -22 110 -42z m-12292 -104 c74 -45 244 -180 600 -476 211
-176 233 -197 244 -235 16 -62 4 -119 -34 -156 -42 -40 -197 -133 -209 -126
-6 4 -16 20 -23 37 -11 27 -11 36 5 67 31 62 33 88 10 135 -29 60 -171 185
-379 334 l-114 81 -34 -25 c-18 -14 -48 -36 -66 -50 -19 -14 -39 -25 -46 -25
-18 0 -58 96 -66 157 -6 46 -2 104 21 281 3 23 9 42 14 42 6 0 40 -19 77 -41z
m4260 -87 c18 -9 200 -173 405 -363 1101 -1021 1380 -1270 1913 -1704 121 -99
267 -220 325 -269 156 -134 630 -547 630 -550 0 -2 -9 -29 -20 -62 -20 -57
-40 -79 -588 -629 -939 -942 -1150 -1166 -1977 -2100 -175 -198 -373 -421
-439 -495 -66 -74 -123 -139 -127 -144 -7 -8 -3429 3059 -3429 3073 0 12 459
522 648 721 724 761 2406 2450 2501 2511 52 34 109 37 158 11z m5369 -73 c79
-38 137 -121 184 -262 26 -81 22 -116 -23 -201 -56 -105 -152 -186 -221 -186
-14 0 -87 12 -163 26 -198 37 -283 42 -506 31 -109 -5 -201 -7 -204 -3 -4 3 5
19 19 34 14 15 71 88 126 163 148 200 229 277 359 343 144 72 341 98 429 55z
m-2555 -65 c41 -13 67 -37 203 -184 180 -195 201 -213 356 -310 63 -40 118
-78 123 -84 9 -13 1 -64 -20 -130 -17 -53 -87 -137 -134 -162 -49 -25 -119
-36 -155 -24 -38 13 -38 13 -22 43 6 12 19 50 28 83 16 59 16 65 -1 109 -28
74 -63 117 -160 195 -49 40 -100 86 -112 102 -21 25 -34 30 -134 47 -121 20
-137 26 -129 47 3 7 15 71 26 141 11 69 25 132 31 139 10 13 26 11 100 -12z
m3154 -429 c174 -20 739 -97 744 -101 6 -5 -391 -775 -399 -772 -12 4 -520
491 -617 591 -77 78 -83 88 -83 126 0 49 17 86 57 122 46 43 84 59 128 54 22
-3 99 -12 170 -20z m1740 -123 c92 -26 201 -76 261 -120 60 -44 88 -107 81
-184 -3 -33 -7 -61 -9 -64 -8 -7 -119 17 -203 43 -44 14 -171 67 -281 118
-223 103 -341 148 -435 165 -67 12 -227 15 -275 5 l-29 -6 38 34 37 34 368 -1
c345 -2 372 -3 447 -24z m-2815 -117 c77 -39 167 -55 354 -64 315 -16 408 -71
722 -428 78 -89 172 -205 209 -258 l68 -97 -20 -26 c-10 -14 -23 -27 -29 -29
-5 -1 -76 47 -159 109 -141 105 -262 217 -431 399 -92 99 -161 153 -230 178
-71 27 -315 75 -508 101 -82 11 -150 21 -151 23 -1 1 -5 19 -9 39 l-7 36 53
21 c69 26 79 26 138 -4z m2209 -131 c89 -26 380 -145 715 -293 176 -78 323
-141 327 -141 4 0 40 59 79 130 40 72 75 132 79 134 7 5 1694 -1417 1698
-1431 2 -5 -38 -53 -89 -108 -50 -55 -226 -280 -390 -500 -577 -775 -613 -821
-774 -985 -83 -85 -252 -270 -375 -410 -381 -434 -764 -872 -1026 -1176 -274
-316 -296 -336 -362 -315 -20 6 -65 36 -101 67 -36 31 -150 120 -255 199 -171
129 -408 332 -825 710 -340 308 -643 574 -1070 940 -250 215 -507 442 -570
506 -130 130 -216 209 -545 499 -126 111 -230 207 -230 212 0 11 61 69 565
538 359 333 688 662 949 948 197 216 261 272 310 272 43 0 103 -42 214 -149
252 -242 690 -625 734 -642 27 -10 106 4 138 25 33 22 68 96 170 361 114 297
167 412 223 482 45 56 111 106 170 128 51 19 177 18 241 -1z m9424 -1535 c38
-19 127 -82 127 -89 0 -4 -210 -207 -467 -451 -694 -660 -885 -850 -1111
-1109 -133 -153 -346 -375 -606 -635 -405 -404 -546 -532 -704 -638 -130 -87
-127 -87 -98 -30 40 79 128 214 218 335 218 293 465 555 948 1006 390 365 604
576 1139 1126 245 253 459 468 476 478 35 21 48 22 78 7z m-19705 -1072 c83
-77 152 -141 152 -144 0 -2 -21 -31 -46 -64 l-45 -59 -27 21 c-96 74 -232 214
-256 261 -26 52 -34 123 -20 176 7 26 -18 46 242 -191z m928 -847 c1611 -1470
2260 -2064 2287 -2090 26 -25 28 -31 22 -74 -4 -25 -11 -46 -15 -46 -21 0
-207 119 -286 182 -171 137 -800 657 -954 788 -326 277 -509 428 -610 505
-193 146 -297 252 -544 555 -175 215 -342 385 -581 594 -93 81 -170 152 -170
157 0 10 107 98 116 96 4 -1 334 -301 735 -667z m21308 -341 c-20 -128 -19
-357 1 -473 21 -119 59 -235 117 -351 27 -55 54 -105 59 -111 17 -21 -2 -42
-69 -77 -143 -75 -406 -134 -642 -143 -140 -6 -283 5 -301 23 -18 18 262 520
409 733 126 183 420 525 436 509 3 -3 -1 -53 -10 -110z m261 -177 c43 -92 132
-277 196 -412 80 -168 118 -260 121 -292 l6 -48 -67 0 c-54 0 -75 5 -116 29
-112 64 -219 216 -261 371 -27 99 -25 276 5 413 14 59 27 107 30 107 3 0 42
-76 86 -168z m-5028 -393 c28 -277 46 -578 37 -610 -7 -24 -27 -44 -81 -82
-39 -27 -76 -46 -82 -43 -15 10 -50 173 -62 293 -12 112 -6 254 13 333 25 107
114 240 151 227 7 -2 17 -50 24 -118z m-3945 83 c14 -6 7 -22 -43 -102 -33
-52 -77 -115 -98 -140 -21 -25 -61 -78 -90 -119 -60 -84 -61 -96 -5 -170 64
-83 130 -85 224 -6 145 121 307 145 461 68 92 -46 144 -110 170 -209 24 -91
24 -157 -2 -240 -34 -111 -52 -137 -126 -187 -83 -57 -185 -86 -330 -94 -91
-5 -103 -4 -103 11 0 9 6 16 14 16 8 0 16 7 20 15 3 9 18 15 37 15 76 0 284
142 325 223 21 39 12 142 -17 198 -25 51 -96 95 -164 104 -55 6 -125 -16 -162
-52 -95 -92 -214 -163 -274 -163 -11 0 -40 16 -63 35 -24 19 -47 35 -52 35 -6
0 -40 28 -77 63 -73 67 -107 133 -107 206 0 64 66 153 285 385 112 118 128
128 177 108z m5044 -47 c8 -31 -2 -104 -23 -170 -55 -174 -298 -379 -570 -481
-70 -26 -234 -69 -305 -79 -64 -10 -63 3 7 88 99 120 201 199 511 398 153 97
300 205 338 248 25 27 34 27 42 -4z m-1438 -224 c11 -7 12 -32 3 -142 -26
-310 -63 -381 -210 -409 -91 -17 -234 25 -314 92 l-28 23 32 43 c44 60 455
402 482 402 12 0 28 -4 35 -9z m1792 -221 c0 -113 -2 -130 -17 -138 -33 -17
-501 -122 -517 -116 -9 3 -16 10 -16 14 0 4 111 83 248 175 136 92 254 174
262 181 35 33 40 18 40 -116z m1725 18 c29 -7 59 -30 114 -85 46 -47 70 -78
64 -84 -16 -16 -114 -27 -189 -22 -237 18 -512 -125 -651 -339 -71 -110 -93
-182 -104 -338 -5 -74 -14 -180 -19 -235 -14 -137 2 -555 25 -652 21 -92 88
-223 199 -392 l88 -133 84 -39 c46 -21 84 -44 84 -50 0 -6 -24 -36 -53 -66
l-54 -56 -119 95 c-134 108 -176 150 -264 269 -118 159 -186 340 -210 559 -30
274 73 667 287 1094 104 209 211 327 371 409 152 79 235 95 347 65z m1851
-182 c3 -8 -31 -124 -76 -257 -108 -325 -123 -387 -123 -529 -1 -153 33 -276
107 -383 14 -21 26 -40 26 -42 0 -8 -36 -5 -45 3 -6 5 -53 24 -105 42 -166 57
-495 232 -642 342 -87 64 -112 107 -142 244 -35 157 -40 207 -26 265 25 102
114 151 301 164 52 3 135 13 184 22 85 15 491 126 503 138 10 10 33 5 38 -9z
m-16171 -23 c110 -51 139 -75 354 -286 124 -122 266 -258 315 -302 60 -54 95
-94 107 -123 18 -40 18 -45 1 -88 -24 -63 -290 -394 -317 -394 -29 0 -129 43
-165 71 -17 13 -32 33 -33 44 -2 17 6 21 48 25 47 5 115 40 115 59 0 5 32 53
70 107 39 54 70 105 70 115 0 9 -60 66 -138 131 l-138 115 -29 -54 c-49 -94
-153 -165 -262 -179 -43 -5 -70 -1 -138 21 -46 14 -99 37 -117 49 -35 23 -102
129 -118 186 -24 84 -2 249 45 355 59 132 125 179 235 169 36 -4 79 -13 95
-21z m6497 -179 c25 -15 393 -302 560 -438 159 -129 167 -138 188 -193 27 -73
22 -128 -20 -192 -31 -46 -62 -70 -91 -71 -24 0 -29 21 -23 92 l6 63 -43 31
c-33 23 -404 330 -520 430 -14 12 -23 7 -72 -42 -62 -62 -96 -69 -108 -24 -12
43 -10 355 2 367 11 11 89 -4 121 -23z m6799 20 c41 -9 73 -22 76 -31 3 -8 -2
-44 -12 -81 -14 -54 -26 -75 -61 -109 -48 -47 -79 -56 -259 -73 -60 -6 -285
-34 -500 -62 -214 -27 -415 -51 -445 -52 -43 -1 -70 6 -122 31 -66 31 -76 41
-61 57 5 4 19 39 33 78 16 45 34 78 51 90 69 51 388 98 984 143 116 9 215 18
220 20 17 6 25 5 96 -11z m1699 -6 c11 -13 23 -32 26 -44 7 -26 -25 -90 -61
-124 l-27 -25 -499 -3 c-356 -3 -499 -1 -499 7 0 16 90 129 108 136 30 11 725
71 864 74 58 1 70 -2 88 -21z m-3230 -29 c0 -6 -11 -29 -25 -52 -54 -93 -66
-205 -56 -537 4 -147 13 -189 44 -218 15 -14 106 -49 238 -93 118 -38 221 -73
229 -76 8 -3 29 -7 45 -9 17 -1 94 -10 172 -18 78 -9 148 -16 155 -16 44 -1
41 -17 -37 -169 -94 -183 -133 -234 -602 -781 -272 -318 -244 -275 -248 -382
-2 -51 -11 -131 -19 -178 -37 -194 -48 -288 -43 -361 6 -101 34 -184 70 -215
l28 -24 87 72 c48 40 119 100 157 133 39 33 180 152 314 265 134 113 272 229
305 258 90 78 101 71 66 -40 -90 -291 -723 -836 -1051 -904 -72 -15 -114 -11
-123 11 -2 7 -1 89 4 182 5 92 14 274 20 403 20 429 30 476 122 600 74 97 302
361 611 703 191 213 202 230 177 278 -6 10 -35 34 -64 53 -30 19 -69 53 -87
75 -22 28 -38 40 -48 36 -9 -4 -40 -11 -68 -16 -75 -14 -153 3 -314 66 -75 30
-159 59 -187 66 -63 13 -82 30 -82 72 -1 18 -5 118 -10 222 -11 229 1 423 30
470 19 30 155 133 178 134 6 1 12 -4 12 -10z m4539 -479 c21 -148 52 -270 106
-427 30 -84 49 -153 43 -153 -5 0 -56 46 -112 103 -161 160 -203 265 -193 472
6 122 32 231 94 391 l38 99 6 -200 c4 -110 12 -238 18 -285z m-5216 371 c162
-11 213 -30 254 -92 30 -45 55 -142 47 -180 -5 -26 -7 -26 -112 -33 -192 -12
-926 -25 -967 -17 -94 18 -144 74 -164 185 -10 54 -15 125 -8 127 1 0 72 2
157 6 85 3 211 9 280 13 132 9 287 6 513 -9z m-1169 -71 l26 -10 0 -1765 0
-1765 -27 -11 c-36 -14 -141 -5 -160 13 -11 12 -16 100 -23 449 -10 425 -15
556 -45 1164 -13 266 -13 322 0 495 8 107 22 375 30 595 20 546 22 561 87 738
44 115 50 121 112 97z m-5939 -77 c22 -15 215 -189 430 -388 214 -198 637
-587 940 -865 302 -278 645 -594 761 -702 213 -199 548 -539 571 -580 16 -29
17 -132 1 -161 -36 -70 -1450 -1710 -1833 -2127 -392 -427 -979 -1017 -1073
-1080 -61 -41 -109 -46 -168 -21 -55 25 -92 54 -264 206 -69 61 -253 221 -410
355 -530 455 -623 540 -1830 1685 -278 264 -506 485 -508 491 -2 6 61 87 140
181 79 94 244 291 367 438 271 323 518 601 666 750 131 133 235 222 539 465
242 193 497 409 891 754 279 245 430 389 524 500 36 43 82 89 101 102 48 33
104 32 155 -3z m10764 -84 c89 -31 114 -269 60 -572 -21 -115 -68 -275 -101
-342 -23 -46 -76 -105 -94 -105 -23 0 -26 19 -15 108 6 48 26 271 46 496 20
225 38 413 41 418 7 11 25 10 63 -3z m464 -328 c118 -70 248 -147 535 -316
162 -95 252 -154 252 -164 -1 -18 -329 -654 -354 -686 -16 -19 -17 -19 -67 35
-146 158 -251 369 -370 739 -28 91 -72 217 -96 280 l-44 116 28 22 c15 13 29
23 31 23 2 0 40 -22 85 -49z m-4156 -66 c24 -43 36 -378 29 -783 -5 -293 -7
-326 -25 -367 -22 -50 -21 -49 -55 -34 -28 13 -32 32 -41 224 -3 66 -15 246
-26 400 -12 154 -22 336 -22 405 -2 118 0 129 28 194 l29 69 33 -39 c19 -22
41 -52 50 -69z m3471 -758 c6 -7 25 -144 41 -304 17 -160 34 -304 37 -320 4
-18 1 -33 -8 -40 -18 -14 -76 -24 -82 -15 -3 5 -16 145 -30 313 -15 167 -28
313 -31 324 -7 32 7 45 56 54 4 0 11 -5 17 -12z m-4998 -29 c11 -12 19 -29 18
-37 -3 -15 -655 -480 -674 -481 -20 0 -24 44 -9 100 32 119 133 220 320 317
97 50 279 121 312 123 7 0 22 -10 33 -22z m4583 -709 c-2 -19 -12 -182 -23
-364 -22 -356 -27 -402 -40 -389 -18 18 -61 223 -72 347 -19 199 14 353 88
422 35 32 50 27 47 -16z m-7309 -870 c20 -12 36 -24 36 -28 0 -14 -58 -178
-74 -208 -24 -48 -93 -127 -304 -351 -105 -111 -316 -347 -469 -525 -301 -349
-508 -586 -873 -997 -129 -146 -305 -348 -391 -450 -248 -294 -360 -411 -544
-566 -92 -77 -395 -315 -408 -319 -7 -3 -22 3 -33 13 -19 15 -21 23 -15 74 6
52 11 61 51 95 464 393 940 895 1584 1668 133 160 364 436 512 615 388 466
860 1000 884 1000 5 0 25 -9 44 -21z m-4764 -1900 c844 -776 1536 -1414 1538
-1419 1 -4 -17 -29 -41 -56 l-45 -49 -58 51 c-33 27 -216 183 -409 344 -957
804 -1357 1162 -1845 1650 -286 285 -451 461 -664 708 l-88 102 33 39 c19 22
36 40 39 40 3 0 696 -634 1540 -1410z m-1752 1084 c84 -65 150 -146 195 -242
l31 -65 7 -290 c12 -483 34 -2552 33 -3171 0 -519 -2 -604 -22 -805 -12 -124
-27 -242 -32 -262 -8 -26 -25 -48 -57 -73 -25 -19 -49 -35 -52 -35 -3 0 -36
29 -73 64 -66 63 -66 65 -75 132 -12 98 -9 732 5 1179 7 209 19 679 27 1045 8
366 19 823 24 1015 11 402 3 598 -34 855 -14 96 -34 288 -45 425 -22 280 -23
285 -14 285 4 0 41 -26 82 -57z m-227 -4049 c24 -127 29 -273 11 -325 -7 -21
-38 -61 -71 -92 -66 -64 -137 -110 -468 -310 -410 -247 -418 -253 -458 -307
-40 -54 -42 -83 -8 -88 12 -2 152 13 310 32 622 77 750 84 953 51 150 -24 272
-23 382 4 92 22 386 125 402 141 6 6 2 32 -9 70 -21 71 -47 97 -157 161 -100
58 -134 86 -167 139 -27 41 -91 227 -91 262 0 13 47 43 56 36 69 -64 1054
-1039 1054 -1044 0 -10 -91 -45 -166 -64 -65 -17 -83 -18 -117 -8 -52 16 -106
67 -146 140 -32 56 -80 111 -112 129 -18 9 -24 -3 -84 -156 -15 -38 -32 -75
-37 -82 -5 -6 -57 -14 -126 -18 -64 -3 -188 -10 -276 -16 -87 -5 -166 -7 -175
-4 -9 3 -59 57 -111 119 l-94 115 -48 -87 c-26 -48 -47 -93 -48 -99 0 -16 -15
-19 -197 -42 -83 -11 -194 -32 -247 -47 -142 -41 -169 -29 -304 134 -47 56
-88 89 -99 78 -4 -4 -13 -55 -20 -113 -7 -59 -16 -110 -20 -114 -5 -4 -138
-17 -298 -29 -159 -11 -298 -23 -307 -26 -34 -10 -57 6 -64 42 -9 51 -124 223
-124 186 0 -5 -7 -27 -16 -48 -9 -22 -17 -69 -18 -105 -2 -114 -33 -140 -186
-163 -227 -32 -328 29 -366 222 l-17 81 -24 -16 c-32 -21 -44 -47 -83 -175
l-33 -107 -41 -6 c-23 -3 -165 -12 -316 -20 -151 -8 -291 -18 -310 -21 -20 -3
-46 -1 -59 4 -21 7 8 27 245 164 1004 581 1283 742 1804 1043 322 186 648 375
725 420 77 46 144 79 148 75 4 -4 17 -56 28 -116z m357 -1579 c10 -10 16 -712
7 -862 -7 -117 -8 -123 -29 -123 -45 0 -99 23 -138 58 -72 65 -71 58 -76 519
l-4 411 28 5 c40 7 203 1 212 -8z m-215 -1044 c5 -5 -98 -98 -230 -206 -269
-224 -429 -380 -522 -510 -75 -106 -162 -280 -190 -384 -11 -41 -22 -76 -24
-78 -2 -2 -24 22 -48 54 -54 72 -124 142 -184 183 -109 75 -277 130 -462 152
-67 7 -103 16 -103 24 0 6 28 38 63 70 321 301 999 622 1472 699 89 14 212 12
228 -4z m767 -86 c608 -222 844 -376 1068 -697 34 -48 57 -90 52 -93 -5 -3
-55 3 -112 15 -278 54 -610 69 -798 36 -179 -32 -356 -102 -510 -202 -40 -25
-75 -42 -80 -38 -13 15 -150 775 -150 833 0 40 46 126 88 162 54 48 130 81
172 75 20 -3 141 -44 270 -91z m-611 -455 c129 -586 137 -643 91 -685 -37 -34
-85 -30 -325 28 -127 31 -313 74 -415 97 -255 56 -260 58 -260 79 0 63 76 232
145 321 78 101 118 134 493 409 55 40 111 84 123 97 l23 25 28 -28 c25 -25 34
-60 97 -343z m1227 -415 c44 -8 107 -24 141 -36 58 -19 63 -23 63 -50 0 -25
-4 -29 -27 -29 -16 0 -226 -11 -468 -24 -242 -14 -441 -23 -443 -21 -7 7 144
85 218 114 41 16 107 36 145 44 92 20 273 21 371 2z"/>
<path d="M18661 33859 c-86 -17 -207 -110 -254 -196 -48 -89 -71 -232 -46
-287 14 -29 59 -51 89 -41 32 10 47 44 54 123 7 87 22 123 68 176 30 35 40 40
89 44 43 3 65 -1 97 -17 47 -24 67 -56 77 -122 6 -39 2 -57 -25 -120 -45 -105
-50 -125 -38 -159 14 -41 65 -45 103 -10 29 27 126 85 166 99 17 6 60 11 94
11 54 0 66 -4 103 -32 59 -45 92 -115 92 -193 0 -56 -4 -66 -36 -108 -51 -65
-121 -99 -191 -91 -76 8 -113 -15 -113 -69 0 -48 16 -65 76 -78 105 -24 218
17 313 111 60 59 106 142 120 216 12 61 -3 171 -29 227 -80 169 -293 258 -438
183 -17 -9 -33 -16 -36 -16 -3 0 -3 29 1 63 7 83 -8 128 -66 190 -76 82 -171
116 -270 96z"/>
<path d="M17952 33062 c-72 -85 -88 -182 -50 -302 28 -89 32 -91 170 -65 l89
16 82 -74 c45 -40 136 -120 202 -177 66 -56 125 -112 132 -124 17 -29 16 -71
-3 -107 -29 -57 3 -99 76 -99 l49 0 66 83 c69 85 135 204 135 241 0 12 -7 32
-16 45 -16 22 -20 23 -108 16 -59 -4 -101 -3 -120 5 -33 12 -194 148 -565 478
-57 50 -107 92 -110 92 -3 0 -16 -13 -29 -28z"/>
<path d="M22267 29958 c-19 -24 -53 -71 -75 -105 l-42 -62 33 -23 c17 -12 34
-26 35 -30 8 -19 64 -38 110 -38 84 0 153 64 168 158 6 36 3 43 -29 76 -24 24
-45 36 -64 36 -15 1 -39 7 -53 15 -38 21 -46 19 -83 -27z"/>
<path d="M22770 29679 c-25 -5 -77 -11 -117 -13 -90 -4 -116 -20 -141 -88 -19
-51 -19 -55 -2 -114 21 -78 65 -147 134 -212 61 -57 109 -75 180 -66 149 21
260 186 222 331 -28 105 -68 145 -160 158 -27 3 -54 8 -60 10 -6 1 -31 -1 -56
-6z"/>
<path d="M25595 27033 c-11 -3 -41 -21 -67 -40 -62 -45 -104 -129 -119 -238
-19 -140 10 -252 83 -322 44 -42 70 -48 92 -24 17 19 17 25 2 110 -19 101 -11
158 27 199 23 25 87 31 105 10 32 -39 108 -243 148 -393 50 -193 124 -393 155
-421 12 -11 24 -27 28 -36 7 -19 107 96 345 391 153 191 142 167 115 256 -12
41 -26 75 -31 75 -5 0 -34 -12 -64 -26 -59 -28 -95 -66 -219 -233 -64 -85 -70
-90 -78 -69 -5 13 -60 163 -123 333 -136 368 -148 393 -194 417 -34 18 -152
24 -205 11z"/>
<path d="M24933 26348 c-8 -10 -34 -381 -33 -474 0 -19 7 -22 53 -27 88 -8
101 4 127 121 7 28 14 52 16 52 2 0 23 -21 46 -46 24 -26 84 -74 133 -107 143
-96 181 -131 216 -203 31 -62 32 -67 27 -162 l-5 -99 91 41 c190 87 200 97
204 206 l4 78 -41 26 c-22 14 -70 36 -106 47 -72 24 -86 35 -463 376 -163 147
-208 183 -231 183 -16 0 -33 -6 -38 -12z"/>
<path d="M11975 26841 c-56 -14 -150 -71 -203 -123 -61 -60 -105 -145 -128
-247 -19 -86 -13 -133 23 -161 29 -23 51 -25 88 -8 27 12 28 13 50 131 16 86
35 124 89 176 29 28 45 35 90 39 71 6 150 -34 172 -86 28 -69 19 -130 -36
-237 -55 -107 -60 -135 -29 -166 26 -26 80 -21 113 10 12 10 55 35 96 55 67
32 83 36 155 36 75 0 84 -2 122 -30 28 -20 53 -52 72 -92 63 -124 31 -237 -87
-310 -47 -29 -90 -36 -157 -27 -87 12 -125 -13 -125 -79 0 -56 44 -82 146 -89
109 -8 188 22 294 110 177 148 203 408 58 585 -28 34 -56 62 -63 62 -7 0 -18
7 -25 15 -24 29 -104 58 -170 63 -49 3 -79 -1 -125 -17 -32 -12 -60 -21 -62
-21 -1 0 4 19 12 41 30 85 16 164 -42 241 -82 108 -208 157 -328 129z"/>
<path d="M18665 27575 c-22 -9 -60 -31 -83 -50 -51 -40 -58 -36 105 -60 57 -8
116 -21 131 -29 71 -37 113 -108 142 -238 7 -32 16 -58 20 -58 9 0 56 52 69
77 45 88 -55 286 -174 342 -56 27 -159 34 -210 16z"/>
<path d="M18595 27354 c-51 -12 -101 -36 -112 -53 -18 -28 0 -120 33 -178 15
-27 66 -86 112 -132 l84 -84 19 29 c39 57 77 140 89 195 22 98 -10 181 -80
207 -32 12 -119 22 -145 16z"/>
<path d="M17602 26342 c-276 -170 -299 -203 -154 -221 40 -5 101 -5 138 -1 82
10 104 29 138 121 23 60 23 68 10 88 -8 11 -28 28 -43 36 -27 14 -32 12 -89
-23z"/>
<path d="M9243 22849 c-56 -26 -89 -68 -97 -124 -7 -43 6 -136 22 -162 4 -6
37 -26 72 -44 54 -27 77 -33 135 -33 86 -1 113 16 151 92 51 102 12 199 -106
260 -72 37 -115 40 -177 11z"/>
<path d="M25748 20754 c-28 -8 -30 -131 -3 -194 8 -19 23 -87 35 -150 43 -238
99 -440 147 -533 53 -103 72 -113 139 -78 40 22 79 58 163 153 53 59 100 82
157 75 84 -9 149 -83 214 -242 57 -139 44 -132 132 -74 84 54 122 103 122 156
0 43 -32 77 -114 118 -61 31 -110 66 -198 142 l-34 28 36 129 c20 71 34 131
32 134 -3 3 -29 -5 -58 -17 -75 -32 -143 -37 -213 -16 -56 16 -67 25 -231 193
l-172 176 -68 2 c-38 2 -77 0 -86 -2z m260 -378 c27 -14 119 -113 154 -165 10
-14 18 -43 18 -63 0 -32 -9 -47 -57 -98 -43 -45 -66 -61 -88 -63 -27 -2 -30 1
-36 38 -4 22 -12 94 -18 160 -6 66 -14 139 -17 163 -7 47 0 51 44 28z"/>
<path d="M25147 19998 c-41 -130 -43 -158 -17 -238 12 -39 26 -72 30 -75 4 -2
43 22 86 55 66 49 81 57 94 46 8 -7 164 -131 345 -276 182 -145 333 -266 337
-269 4 -3 -12 -35 -35 -71 -31 -49 -42 -75 -42 -107 0 -52 11 -64 67 -70 l44
-5 51 68 c82 113 175 255 169 261 -3 3 -39 20 -81 38 -173 75 -299 163 -569
393 -88 76 -190 161 -226 189 -75 59 -204 143 -218 143 -5 0 -21 -37 -35 -82z"/>
<path d="M15925 23058 c-44 -16 -64 -36 -97 -102 -28 -55 -29 -62 -18 -104 42
-166 192 -319 346 -351 51 -10 114 -6 145 10 27 14 51 77 52 138 1 47 -5 68
-38 130 -48 90 -187 242 -243 264 -54 21 -113 27 -147 15z"/>
<path d="M12206 19651 c-95 -101 -197 -240 -226 -310 -12 -29 -10 -34 28 -84
23 -28 83 -95 134 -148 131 -136 170 -140 276 -30 64 66 99 81 184 81 71 0
117 -18 147 -56 31 -40 23 -83 -31 -159 -23 -33 -77 -112 -120 -175 l-78 -114
27 -22 c31 -25 51 -24 121 9 64 29 133 112 193 233 51 102 54 112 54 184 0 60
-5 85 -25 123 -30 59 -90 116 -162 154 -47 25 -63 28 -148 28 -86 0 -101 -3
-160 -31 -36 -17 -85 -45 -110 -62 -52 -36 -62 -32 -92 35 -17 38 -17 45 -4
75 8 18 37 56 65 85 29 31 54 67 60 90 13 44 15 123 4 123 -5 1 -27 5 -51 9
-42 8 -44 8 -86 -38z"/>
<path d="M19013 20249 c-42 -12 -130 -110 -164 -184 -44 -94 -48 -187 -15
-311 65 -239 128 -364 241 -479 220 -224 516 -292 690 -159 50 38 114 125 137
188 85 233 -8 439 -247 548 -73 33 -221 33 -283 0 -102 -54 -190 -165 -219
-275 -10 -37 -20 -67 -24 -67 -3 0 -20 31 -38 69 -36 78 -81 279 -81 361 0 99
41 193 89 205 20 5 22 10 17 38 -3 18 -17 42 -32 55 -28 24 -26 24 -71 11z
m595 -603 c126 -64 170 -182 112 -296 -64 -125 -210 -140 -365 -40 l-40 26 1
72 c1 61 6 79 37 134 71 127 148 158 255 104z"/>
<path d="M15521 16533 c-35 -42 -64 -152 -55 -205 14 -69 37 -92 119 -120 100
-34 127 -22 179 76 34 64 33 97 -3 139 -40 45 -174 147 -194 147 -8 0 -29 -17
-46 -37z"/>
<path d="M18942 13468 c-27 -30 -42 -71 -42 -117 0 -45 63 -223 255 -716 26
-66 51 -133 57 -150 6 -16 14 -33 17 -37 4 -4 72 84 151 197 80 112 149 204
154 205 4 0 80 -67 167 -150 88 -82 163 -150 167 -150 4 0 38 25 75 56 82 68
86 58 -81 198 -143 120 -180 207 -148 341 8 33 13 61 11 63 -2 2 -52 -35 -111
-84 -75 -62 -110 -85 -119 -78 -7 5 -71 77 -143 159 -214 247 -261 285 -352
285 -25 0 -43 -7 -58 -22z m257 -300 c31 -29 104 -98 163 -154 l108 -102 -90
-81 c-50 -45 -94 -81 -98 -81 -4 0 -48 98 -99 218 -84 200 -90 218 -76 235 9
9 21 17 26 17 6 0 35 -23 66 -52z"/>
<path d="M24750 11025 l0 -175 110 0 110 0 0 175 0 175 -110 0 -110 0 0 -175z"/>
<path d="M25310 11025 l0 -175 105 0 105 0 0 175 0 175 -105 0 -105 0 0 -175z"/>
<path d="M22150 9355 l0 -1235 424 0 c240 0 458 5 503 11 392 52 654 255 778
602 96 270 119 706 55 1041 -79 409 -286 657 -639 766 -137 43 -231 50 -688
50 l-433 0 0 -1235z m865 1025 c303 -42 492 -162 599 -380 84 -171 116 -350
116 -645 0 -99 -5 -220 -11 -270 -41 -332 -172 -557 -389 -664 -166 -81 -302
-101 -692 -101 l-278 0 0 1035 0 1035 293 0 c160 0 324 -5 362 -10z"/>
<path d="M24273 9698 c3 -869 4 -895 24 -979 85 -344 279 -548 598 -626 110
-27 382 -24 498 5 263 66 454 239 542 491 61 173 58 127 62 1104 l4 897 -106
0 -105 0 0 -818 c0 -503 -4 -850 -10 -902 -25 -200 -80 -331 -185 -436 -122
-123 -228 -159 -465 -159 -167 0 -220 10 -330 63 -74 35 -179 141 -219 219
-42 85 -77 211 -90 326 -7 60 -11 396 -11 902 l0 805 -105 0 -106 0 4 -892z"/>
<path d="M26430 9355 l0 -1235 105 0 105 0 2 548 3 547 465 0 465 0 67 -33
c98 -48 160 -127 201 -257 26 -81 36 -157 52 -395 17 -254 20 -284 41 -357
l15 -53 118 0 118 0 -18 38 c-44 89 -63 217 -79 517 -12 219 -28 313 -69 401
-54 115 -138 187 -259 220 l-63 18 59 21 c142 51 230 131 297 269 60 123 79
222 73 380 -12 299 -151 483 -433 577 -70 24 -72 24 -667 27 l-598 3 0 -1236z
m1158 1020 c171 -41 278 -155 317 -342 60 -283 -80 -530 -340 -598 -49 -12
-136 -15 -492 -15 l-433 0 0 485 0 485 443 0 c355 0 454 -3 505 -15z"/>
<path d="M28520 9355 l0 -1235 775 0 775 0 0 100 0 100 -670 0 -670 0 0 490 0
490 620 0 620 0 0 100 0 100 -620 0 -620 0 0 445 0 445 665 0 665 0 0 100 0
100 -770 0 -770 0 0 -1235z"/>
<path d="M30370 9355 l0 -1235 105 0 105 0 0 551 0 550 468 -3 c456 -3 468 -4
514 -25 104 -48 170 -125 212 -250 32 -95 43 -172 61 -443 16 -242 19 -260 42
-332 l15 -48 118 0 119 0 -19 33 c-43 73 -65 210 -80 495 -12 230 -30 339 -69
427 -51 111 -142 188 -261 222 l-62 17 49 17 c156 53 273 167 332 322 69 186
64 453 -11 602 -63 124 -150 209 -271 265 -140 65 -124 64 -774 68 l-593 3 0
-1236z m1158 1020 c159 -38 266 -143 309 -306 25 -95 22 -256 -6 -333 -56
-155 -170 -260 -328 -301 -46 -12 -139 -15 -490 -15 l-433 0 0 485 0 485 443
0 c355 0 454 -3 505 -15z"/>
<path d="M26825 7403 c-157 -35 -287 -127 -352 -249 -49 -92 -66 -172 -61
-294 3 -93 7 -112 35 -171 49 -100 113 -158 228 -206 28 -12 166 -53 308 -92
278 -77 361 -110 426 -174 70 -67 86 -107 86 -212 0 -75 -4 -98 -25 -140 -74
-152 -274 -248 -480 -230 -272 23 -419 135 -466 354 -7 36 -14 83 -14 104 l0
37 -82 0 -81 0 6 -93 c15 -228 115 -386 300 -476 112 -55 210 -74 382 -73 107
0 158 5 216 20 176 47 287 129 352 262 101 206 68 445 -81 581 -84 77 -188
120 -489 203 -148 41 -285 82 -306 90 -54 23 -112 79 -137 133 -31 66 -25 213
10 288 47 96 138 162 258 185 85 17 242 8 308 -17 149 -58 253 -190 271 -345
l6 -48 78 0 79 0 0 43 c-1 124 -67 272 -164 365 -119 114 -259 163 -465 161
-69 -1 -135 -3 -146 -6z"/>
<path d="M21914 7363 c3 -10 142 -427 309 -928 l304 -910 94 -3 94 -2 308 918
c169 504 307 923 307 930 0 10 -21 12 -82 10 l-82 -3 -109 -335 c-59 -184
-137 -423 -172 -530 -35 -107 -107 -329 -160 -493 -53 -164 -98 -297 -101
-295 -2 3 -56 164 -120 359 -64 195 -185 567 -271 827 l-155 472 -84 0 c-77 0
-85 -2 -80 -17z"/>
<path d="M23487 7373 c-4 -3 -7 -422 -7 -930 l0 -923 585 0 585 0 0 75 0 75
-502 2 -503 3 -3 362 -2 363 467 2 468 3 3 72 3 73 -468 2 -468 3 0 335 0 335
498 3 497 2 0 75 0 75 -573 0 c-316 0 -577 -3 -580 -7z"/>
<path d="M24877 7374 c-4 -4 -7 -423 -7 -931 l0 -923 80 0 80 0 0 410 0 410
353 0 c324 0 355 -2 392 -19 58 -28 103 -76 135 -144 35 -73 46 -140 65 -387
8 -107 20 -212 26 -232 l12 -38 87 0 86 0 -24 72 c-16 49 -27 112 -33 197 -28
372 -35 412 -84 491 -40 63 -113 113 -183 126 -33 6 -32 7 46 45 95 46 141 94
188 193 53 113 66 240 39 371 -38 178 -135 280 -325 341 -48 15 -110 18 -490
22 -239 2 -438 0 -443 -4z m813 -154 c182 -24 280 -131 296 -323 14 -162 -58
-298 -193 -363 -75 -37 -168 -45 -483 -42 l-275 3 -3 355 c-1 195 0 361 3 367
6 16 538 18 655 3z"/>
<path d="M27917 7373 c-4 -3 -7 -422 -7 -930 l0 -923 585 0 585 0 0 75 0 75
-505 0 -505 0 0 365 0 365 468 2 467 3 3 72 3 73 -468 2 -468 3 0 335 0 335
498 3 497 2 0 75 0 75 -573 0 c-316 0 -577 -3 -580 -7z"/>
<path d="M29300 6450 l0 -930 80 0 80 0 0 782 c0 552 3 779 11 771 5 -5 225
-356 488 -779 l478 -769 91 -3 92 -3 0 931 0 930 -80 0 -80 0 -2 -787 -3 -786
-489 786 -488 787 -89 0 -89 0 0 -930z"/>
<path d="M30774 7364 c3 -9 150 -256 326 -549 l320 -533 0 -381 0 -381 80 0
80 0 0 383 0 382 316 520 c173 286 322 532 330 548 l15 27 -95 0 -94 0 -274
-469 c-150 -259 -276 -467 -280 -463 -4 4 -128 214 -276 467 l-270 460 -92 3
c-83 2 -92 1 -86 -14z"/>
<path d="M25246 4539 c-74 -11 -171 -55 -223 -103 -52 -46 -100 -138 -118
-223 -8 -37 -13 -68 -12 -69 1 -1 39 -6 85 -11 l82 -9 0 33 c0 84 65 184 150
229 54 29 220 27 275 -3 115 -62 163 -182 120 -303 -34 -95 -152 -226 -385
-425 -123 -104 -210 -192 -252 -252 -43 -63 -85 -161 -93 -215 l-6 -48 465 0
466 0 0 85 0 85 -357 0 -357 0 44 46 c25 26 108 101 185 167 233 200 274 239
338 317 108 134 149 260 127 390 -30 169 -156 282 -348 310 -77 11 -104 11
-186 -1z"/>
<path d="M26372 4539 c-162 -27 -281 -154 -333 -357 -29 -115 -42 -324 -30
-478 30 -365 144 -539 379 -574 196 -30 356 49 442 220 69 136 101 381 81 623
-12 154 -31 234 -76 334 -60 131 -162 211 -296 233 -73 11 -93 11 -167 -1z
m214 -164 c122 -75 164 -214 164 -540 0 -326 -42 -465 -164 -540 -44 -27 -58
-30 -126 -30 -68 0 -82 3 -126 30 -122 75 -163 213 -164 541 0 328 52 487 183
554 64 32 167 25 233 -15z"/>
<path d="M27446 4539 c-74 -11 -171 -55 -223 -103 -52 -46 -100 -138 -118
-223 -8 -37 -13 -68 -12 -69 1 -1 39 -6 85 -11 l82 -9 0 33 c0 84 65 184 150
229 54 29 220 27 275 -3 115 -62 163 -182 120 -303 -34 -95 -152 -226 -385
-425 -123 -104 -210 -192 -252 -252 -43 -63 -85 -161 -93 -215 l-6 -48 465 0
466 0 0 85 0 85 -357 0 -357 0 44 46 c25 26 108 101 185 167 233 200 274 239
338 317 108 134 149 260 127 390 -30 169 -156 282 -348 310 -77 11 -104 11
-186 -1z"/>
<path d="M28546 4539 c-74 -11 -171 -55 -223 -103 -52 -46 -100 -138 -118
-223 -8 -37 -13 -68 -12 -69 1 -1 39 -6 85 -11 l82 -9 0 33 c0 84 65 184 150
229 54 29 220 27 275 -3 115 -62 163 -182 120 -303 -34 -95 -152 -226 -385
-425 -123 -104 -210 -192 -252 -252 -43 -63 -85 -161 -93 -215 l-6 -48 465 0
466 0 0 85 0 85 -357 0 -357 0 44 46 c25 26 108 101 185 167 233 200 274 239
338 317 108 134 149 260 127 390 -30 169 -156 282 -348 310 -77 11 -104 11
-186 -1z"/>
</g>
</svg>
